<svg xmlns="http://www.w3.org/2000/svg" viewBox="0 0 48 48" width="56" height="56" fill="none">
  <defs>
    <linearGradient id="bg" x1="0" y1="0" x2="48" y2="48" gradientUnits="userSpaceOnUse">
      <stop stop-color="#7c3aed"/>
      <stop offset="1" stop-color="#3b82f6"/>
    </linearGradient>
  </defs>
  <!-- Rounded square -->
  <rect width="48" height="48" rx="13" fill="url(#bg)"/>
  <!-- Chat bubble / ticket shape -->
  <path d="M12 14a4 4 0 0 1 4-4h16a4 4 0 0 1 4 4v14a4 4 0 0 1-4 4H22l-6 5v-5h-4z" fill="white" fill-opacity=".95"/>
  <!-- Brain spark: 3 connected dots -->
  <circle cx="20" cy="20" r="2.2" fill="url(#bg)"/>
  <circle cx="28" cy="17" r="2.2" fill="url(#bg)"/>
  <circle cx="27" cy="25" r="2.2" fill="url(#bg)"/>
  <line x1="20" y1="20" x2="28" y2="17" stroke="url(#bg)" stroke-width="1.4" stroke-linecap="round"/>
  <line x1="20" y1="20" x2="27" y2="25" stroke="url(#bg)" stroke-width="1.4" stroke-linecap="round"/>
  <line x1="28" y1="17" x2="27" y2="25" stroke="url(#bg)" stroke-width="1.4" stroke-linecap="round"/>
</svg>
